<?xml version="1.0" encoding="iso-8859-1"?>
<!-- Generator: Adobe Illustrator 16.0.0, SVG Export Plug-In . SVG Version: 6.00 Build 0)  -->
<!DOCTYPE svg PUBLIC "-//W3C//DTD SVG 1.1//EN" "http://www.w3.org/Graphics/SVG/1.1/DTD/svg11.dtd">
<svg version="1.1" id="Capa_1" xmlns="http://www.w3.org/2000/svg" xmlns:xlink="http://www.w3.org/1999/xlink" x="0px" y="0px"
	 width="450.791px" height="450.791px" viewBox="0 0 450.791 450.791" style="enable-background:new 0 0 450.791 450.791;"
	 xml:space="preserve">
<g>
	<path d="M225.395,0.004C101.113,0.004,0,101.116,0,225.398c0,124.277,101.113,225.389,225.395,225.389
		c124.282,0,225.396-101.111,225.396-225.395C450.791,101.11,349.677,0.004,225.395,0.004z M225.395,428.374
		c-111.92,0-202.981-91.054-202.981-202.981c0-111.927,91.061-202.975,202.981-202.975c111.922,0,202.98,91.054,202.98,202.981
		C428.375,337.32,337.316,428.374,225.395,428.374z M118.337,213.625c0-18.482,5.743-34.351,13.97-41.354
		c-24.219-12.476-47.187-30.247-49.204-53.335c-0.401-4.624,3.015-8.703,7.644-9.106c4.617-0.388,8.701,3.013,9.106,7.636
		c2.631,30.167,68.915,53.725,94.235,60.258c0.173,0.046,0.327,0.123,0.493,0.18c0.28,0.096,0.561,0.183,0.824,0.307
		c0.252,0.112,0.487,0.24,0.722,0.369c0.235,0.137,0.466,0.276,0.695,0.427c0.236,0.17,0.449,0.353,0.663,0.539
		c0.196,0.167,0.386,0.342,0.572,0.531c0.208,0.219,0.39,0.454,0.577,0.695c0.105,0.135,0.229,0.252,0.331,0.395
		c0.042,0.07,0.07,0.145,0.117,0.215c0.161,0.254,0.29,0.518,0.418,0.786c0.119,0.235,0.235,0.465,0.331,0.706
		c0.096,0.251,0.157,0.511,0.231,0.774c0.073,0.268,0.155,0.53,0.201,0.807c0.04,0.247,0.049,0.503,0.072,0.761
		c0.023,0.293,0.051,0.583,0.046,0.87c-0.006,0.235-0.046,0.47-0.074,0.706c-0.033,0.326-0.075,0.638-0.146,0.952
		c-0.016,0.074-0.011,0.145-0.032,0.219c-0.019,0.079-0.075,0.134-0.096,0.208c-0.236,0.824-0.572,1.622-1.053,2.348
		c-0.023,0.038-0.058,0.065-0.079,0.106c-0.443,0.632-0.992,1.204-1.615,1.713c-0.117,0.101-0.225,0.197-0.341,0.287
		c-0.093,0.065-0.167,0.15-0.264,0.219l-24.167-3.998c-3.951-1.299-8.372-2.851-13.055-4.616c3.513,7.907,5.65,18.165,5.65,29.401
		c0,24.952-10.469,45.188-23.386,45.188C128.805,258.818,118.337,238.583,118.337,213.625z M364.753,118.936
		c-2.013,23.084-24.985,40.865-49.204,53.335c8.229,7.004,13.976,22.873,13.976,41.354c0,24.958-10.474,45.193-23.388,45.193
		s-23.383-20.235-23.383-45.193c0-11.236,2.143-21.494,5.653-29.401c-4.683,1.765-9.104,3.315-13.055,4.615l-24.172,3.997
		c-0.093-0.068-0.169-0.152-0.262-0.218c-0.115-0.09-0.229-0.186-0.345-0.287c-0.625-0.509-1.172-1.076-1.609-1.713
		c-0.021-0.042-0.058-0.068-0.082-0.107c-0.481-0.725-0.815-1.518-1.056-2.347c-0.022-0.069-0.064-0.128-0.093-0.203
		c-0.018-0.074-0.018-0.145-0.033-0.219c-0.069-0.314-0.115-0.626-0.148-0.952c-0.021-0.235-0.065-0.47-0.07-0.706
		c-0.004-0.292,0.016-0.583,0.049-0.87c0.012-0.257,0.021-0.514,0.067-0.761c0.048-0.276,0.132-0.539,0.206-0.807
		c0.071-0.263,0.132-0.523,0.229-0.774c0.094-0.241,0.22-0.471,0.331-0.706c0.131-0.268,0.257-0.531,0.416-0.786
		c0.047-0.071,0.069-0.145,0.117-0.215c0.102-0.143,0.228-0.259,0.33-0.395c0.188-0.241,0.371-0.476,0.579-0.695
		c0.187-0.188,0.374-0.358,0.569-0.531c0.221-0.186,0.439-0.364,0.668-0.539c0.219-0.15,0.459-0.29,0.691-0.427
		c0.238-0.129,0.468-0.263,0.72-0.369c0.274-0.118,0.547-0.211,0.826-0.307c0.172-0.058,0.323-0.134,0.494-0.18
		c25.317-6.534,91.605-30.091,94.232-60.258c0.406-4.624,4.488-8.03,9.105-7.636C361.742,110.232,365.159,114.312,364.753,118.936z
		 M320.462,373.708c0,4.641-3.754,8.405-8.404,8.405c-4.641,0-8.405-3.765-8.405-8.405c0-39.398-35.106-71.442-78.258-71.442
		s-78.254,32.044-78.254,71.442c0,4.641-3.763,8.405-8.406,8.405c-4.646,0-8.405-3.765-8.405-8.405
		c0-48.667,42.646-88.252,95.065-88.252S320.462,325.041,320.462,373.708z"/>
</g>
<g>
</g>
<g>
</g>
<g>
</g>
<g>
</g>
<g>
</g>
<g>
</g>
<g>
</g>
<g>
</g>
<g>
</g>
<g>
</g>
<g>
</g>
<g>
</g>
<g>
</g>
<g>
</g>
<g>
</g>
</svg>
